<?xml version="1.0" encoding="UTF-8" standalone="no"?>
<!-- Created with Inkscape (http://www.inkscape.org/) -->

<svg
   version="1.1"
   id="svg2"
   xml:space="preserve"
   width="133.33333"
   height="133.33333"
   viewBox="0 0 133.33333 133.33333"
   sodipodi:docname="icon.svg"
   inkscape:version="1.1.2 (0a00cf5339, 2022-02-04)"
   xmlns:inkscape="http://www.inkscape.org/namespaces/inkscape"
   xmlns:sodipodi="http://sodipodi.sourceforge.net/DTD/sodipodi-0.dtd"
   xmlns="http://www.w3.org/2000/svg"
   xmlns:svg="http://www.w3.org/2000/svg"><defs
     id="defs6"><clipPath
       clipPathUnits="userSpaceOnUse"
       id="clipPath18"><path
         d="M 0,4.5 H 339.277 V 328 H 0 Z"
         id="path16" /></clipPath><clipPath
       clipPathUnits="userSpaceOnUse"
       id="clipPath28"><path
         d="M 0,0 H 340 V 328 H 0 Z"
         id="path26" /></clipPath><clipPath
       clipPathUnits="userSpaceOnUse"
       id="clipPath40"><path
         d="M 0,0 H 340 V 328 H 0 Z"
         id="path38" /></clipPath><clipPath
       clipPathUnits="userSpaceOnUse"
       id="clipPath54"><path
         d="M 0,0 H 340 V 328 H 0 Z"
         id="path52" /></clipPath></defs><sodipodi:namedview
     id="namedview4"
     pagecolor="#ffffff"
     bordercolor="#666666"
     borderopacity="1.0"
     inkscape:pageshadow="2"
     inkscape:pageopacity="0.0"
     inkscape:pagecheckerboard="0"
     showgrid="false"
     inkscape:zoom="3.1221865"
     inkscape:cx="85.516992"
     inkscape:cy="36.993305"
     inkscape:window-width="1920"
     inkscape:window-height="1031"
     inkscape:window-x="0"
     inkscape:window-y="25"
     inkscape:window-maximized="1"
     inkscape:current-layer="g30" /><g
     id="g8"
     inkscape:groupmode="layer"
     inkscape:label="Ledger Manager icon template"
     transform="matrix(1.3333333,0,0,1.3333333,-52.937332,-272.52133)"><g
       id="g10" /><g
       id="g24"
       clip-path="url(#clipPath28)"><g
         id="g30"><path
           d="m 79.039,204.391 h 21.332 c 27.246,0 39.332,12.086 39.332,39.332 v 21.336 c 0,27.246 -12.086,39.332 -39.332,39.332 H 79.039 c -27.246,0 -39.336,-12.086 -39.336,-39.332 v -21.336 c 0,-27.246 12.09,-39.332 39.336,-39.332"
           style="fill:#90edf2;fill-opacity:1;fill-rule:evenodd;stroke:none"
           id="path44" /><path
           d="m 79.039,204.391 h 21.332 c 27.246,0 39.332,12.086 39.332,39.332 v 21.336 c 0,27.246 -12.086,39.332 -39.332,39.332 H 79.039 c -27.246,0 -39.336,-12.086 -39.336,-39.332 v -21.336 c 0,-27.246 12.09,-39.332 39.336,-39.332 z"
           style="fill:none;stroke:none;stroke-width:0.25;stroke-linecap:butt;stroke-linejoin:miter;stroke-miterlimit:10;stroke-dasharray:none;stroke-opacity:1"
           id="path66" /><text
           xml:space="preserve"
           style="font-style:normal;font-weight:normal;font-size:80.7146px;line-height:1.25;font-family:sans-serif;fill:#ffffff;fill-opacity:1;stroke:none;stroke-width:2.01787;stroke-opacity:1"
           x="-294.78549"
           y="120.80768"
           id="text6562"
           transform="rotate(-90)"><tspan
             sodipodi:role="line"
             id="tspan6560"
             style="fill:#ffffff;fill-opacity:1;stroke:none;stroke-width:2.01787;stroke-opacity:1"
             x="-294.78549"
             y="120.80768">🗝</tspan></text></g></g></g></svg>
